<?xml version="1.0" encoding="UTF-8"?>
<svg xmlns="http://www.w3.org/2000/svg" xmlns:xlink="http://www.w3.org/1999/xlink" width="205px" height="205px" viewBox="0 0 205 205" version="1.1">
<defs>
<linearGradient id="linear0" gradientUnits="userSpaceOnUse" x1="0.54638" y1="0.26924" x2="0.28129" y2="0.79519" gradientTransform="matrix(103.484375,0,0,119.15625,45.640625,1.449219)">
<stop offset="0" style="stop-color:rgb(100%,100%,100%);stop-opacity:0;"/>
<stop offset="1" style="stop-color:rgb(100%,100%,100%);stop-opacity:0.27451;"/>
</linearGradient>
</defs>
<g id="surface1">
<path style=" stroke:none;fill-rule:nonzero;fill:rgb(9.019608%,57.647059%,81.960784%);fill-opacity:1;" d="M 101.722656 0.660156 C 92.734375 22.6875 87.28125 37.117188 77.277344 58.492188 C 83.410156 64.992188 90.949219 72.535156 103.175781 81.085938 C 90.03125 75.675781 81.070312 70.261719 74.371094 64.625 C 61.570312 91.339844 41.5 129.375 0.796875 202.507812 C 32.777344 184.046875 57.574219 172.652344 80.679688 168.308594 C 79.6875 164.046875 79.160156 159.417969 79.199219 154.609375 L 79.226562 153.597656 C 79.730469 133.105469 90.394531 117.34375 103.027344 118.414062 C 115.65625 119.484375 125.488281 136.972656 124.980469 157.46875 C 124.882812 161.328125 124.433594 165.039062 123.675781 168.480469 C 146.53125 172.953125 171.089844 184.292969 202.644531 202.507812 C 196.421875 191.054688 190.847656 180.730469 185.542969 170.894531 C 177.1875 164.417969 168.476562 155.996094 150.703125 146.871094 C 162.921875 150.046875 171.675781 153.71875 178.496094 157.8125 C 124.570312 57.410156 120.210938 44.058594 101.722656 0.660156 Z M 101.722656 0.660156 "/>
<path style=" stroke:none;fill-rule:nonzero;fill:rgb(100%,100%,100%);fill-opacity:0.164706;" d="M 158.53125 120.632812 C 114.78125 61.253906 104.640625 13.394531 102.070312 1.96875 C 125.410156 55.792969 125.25 56.457031 158.53125 120.632812 Z M 158.53125 120.632812 "/>
<path style=" stroke:none;fill-rule:nonzero;fill:url(#linear0);" d="M 102.113281 1.449219 C 100.980469 4.238281 99.90625 6.960938 98.859375 9.53125 C 97.710938 12.355469 96.597656 15.070312 95.511719 17.710938 C 94.425781 20.351562 93.324219 22.855469 92.257812 25.398438 C 91.191406 27.945312 90.195312 30.457031 89.105469 32.988281 C 88.015625 35.519531 86.816406 38.078125 85.65625 40.675781 C 84.496094 43.277344 83.285156 45.902344 82.007812 48.660156 C 80.734375 51.414062 79.398438 54.339844 77.964844 57.332031 C 77.773438 57.738281 77.574219 58.203125 77.375 58.613281 C 83.492188 65.09375 91.03125 72.578125 103.195312 81.085938 C 90.054688 75.675781 81.121094 70.261719 74.417969 64.625 C 74.070312 65.339844 73.792969 65.964844 73.433594 66.695312 C 72.109375 69.441406 70.6875 72.160156 69.195312 75.171875 C 68.839844 75.878906 68.578125 76.519531 68.210938 77.242188 C 66.632812 80.40625 64.976562 83.683594 63.183594 87.195312 C 62.828125 87.886719 62.464844 88.460938 62.097656 89.164062 C 61.015625 91.269531 57.558594 97.902344 54.019531 104.640625 C 51.953125 108.578125 50.332031 111.800781 48.003906 116.171875 C 47.34375 117.425781 45.988281 119.941406 45.640625 120.605469 C 71.265625 106.183594 98.910156 85.234375 149.125 103.164062 C 146.613281 98.398438 144.199219 93.957031 142.03125 89.757812 C 139.859375 85.558594 137.890625 81.648438 136.019531 77.929688 C 134.144531 74.214844 132.414062 70.707031 130.792969 67.386719 C 129.175781 64.0625 127.675781 60.929688 126.261719 57.921875 C 124.847656 54.917969 123.46875 52.027344 122.222656 49.25 C 120.96875 46.476562 119.804688 43.792969 118.671875 41.171875 C 117.539062 38.542969 116.480469 35.941406 115.417969 33.382812 C 114.359375 30.824219 113.296875 28.371094 112.265625 25.792969 C 111.816406 24.671875 111.433594 23.480469 110.984375 22.34375 C 108.183594 15.769531 105.4375 9.25 102.113281 1.449219 Z M 102.113281 1.449219 "/>
</g>
</svg>
