<?xml version="1.0" encoding="UTF-8"?>
<svg xmlns="http://www.w3.org/2000/svg" xmlns:xlink="http://www.w3.org/1999/xlink" width="220px" height="220px" viewBox="0 0 220 220" version="1.1">
<g id="surface1">
<path style=" stroke:none;fill-rule:nonzero;fill:rgb(100%,100%,100%);fill-opacity:1;" d="M 192.972656 45.503906 L 123.535156 4.253906 C 115.242188 -0.6875 105.015625 -0.6875 96.722656 4.253906 L 27.285156 45.503906 C 18.992188 50.402344 13.878906 59.511719 13.878906 69.351562 L 13.878906 151.808594 C 13.878906 161.648438 18.992188 170.757812 27.285156 175.65625 L 96.722656 216.863281 C 100.847656 219.3125 105.488281 220.558594 110.128906 220.558594 C 114.769531 220.558594 119.367188 219.3125 123.535156 216.863281 L 192.972656 175.65625 C 201.265625 170.714844 206.378906 161.648438 206.378906 151.808594 L 206.378906 69.351562 C 206.378906 59.511719 201.265625 50.402344 192.972656 45.503906 Z M 192.972656 45.503906 "/>
<path style=" stroke:none;fill-rule:nonzero;fill:rgb(15.686275%,18.823529%,21.568627%);fill-opacity:1;" d="M 192.972656 45.503906 L 123.535156 4.253906 C 119.410156 1.804688 114.769531 0.558594 110.128906 0.558594 C 105.488281 0.558594 100.890625 1.804688 96.722656 4.253906 L 27.285156 45.503906 C 18.992188 50.402344 13.878906 59.511719 13.878906 69.351562 L 13.878906 151.808594 C 13.878906 161.648438 18.992188 170.757812 27.285156 175.65625 L 96.722656 216.863281 C 100.847656 219.3125 105.488281 220.558594 110.128906 220.558594 C 114.769531 220.558594 119.367188 219.3125 123.535156 216.863281 L 192.972656 175.65625 C 201.265625 170.714844 206.378906 161.648438 206.378906 151.808594 L 206.378906 69.351562 C 206.378906 59.511719 201.265625 50.402344 192.972656 45.503906 Z M 99.171875 212.652344 L 29.734375 171.445312 C 22.945312 167.40625 18.734375 159.886719 18.734375 151.808594 L 18.734375 69.351562 C 18.734375 61.273438 22.945312 53.753906 29.734375 49.714844 L 99.171875 8.507812 C 102.523438 6.53125 106.304688 5.5 110.128906 5.5 C 113.953125 5.5 117.777344 6.53125 121.085938 8.507812 L 190.523438 49.714844 C 196.238281 53.109375 200.105469 58.996094 201.179688 65.613281 C 198.859375 60.714844 193.703125 59.339844 187.644531 62.90625 L 121.945312 103.511719 C 113.738281 108.28125 107.722656 113.695312 107.722656 123.535156 L 107.722656 204.488281 C 107.722656 210.417969 110.085938 214.242188 113.78125 215.359375 C 112.578125 215.574219 111.375 215.703125 110.128906 215.703125 C 106.304688 215.660156 102.480469 214.628906 99.171875 212.652344 Z M 99.171875 212.652344 "/>
<path style=" stroke:none;fill-rule:nonzero;fill:rgb(30.196078%,65.882353%,14.509804%);fill-opacity:1;" d="M 174.796875 159.757812 L 157.480469 170.113281 C 157.007812 170.371094 156.664062 170.671875 156.664062 171.230469 L 156.664062 175.742188 C 156.664062 176.300781 157.050781 176.515625 157.480469 176.257812 L 175.054688 165.601562 C 175.527344 165.34375 175.570312 164.828125 175.570312 164.269531 L 175.570312 160.273438 C 175.613281 159.714844 175.226562 159.5 174.796875 159.757812 Z M 174.796875 159.757812 "/>
<path style=" stroke:none;fill-rule:nonzero;fill:rgb(100%,100%,100%);fill-opacity:1;" d="M 137.972656 121.6875 C 138.53125 121.386719 139.003906 121.773438 139.003906 122.503906 L 139.046875 128.476562 C 141.539062 127.488281 143.730469 127.230469 145.707031 127.660156 C 146.136719 127.789062 146.308594 128.347656 146.136719 129.035156 L 144.804688 134.320312 C 144.71875 134.707031 144.460938 135.136719 144.203125 135.394531 C 144.074219 135.523438 143.988281 135.609375 143.859375 135.652344 C 143.6875 135.738281 143.515625 135.78125 143.34375 135.738281 C 142.441406 135.523438 140.292969 135.050781 136.941406 136.769531 C 133.417969 138.574219 132.171875 141.625 132.214844 143.902344 C 132.257812 146.609375 133.632812 147.46875 138.445312 147.511719 C 144.847656 147.597656 147.640625 150.433594 147.683594 156.878906 C 147.769531 163.238281 144.375 170.027344 139.175781 174.238281 L 139.304688 180.167969 C 139.304688 180.898438 138.832031 181.714844 138.273438 181.972656 L 134.75 183.992188 C 134.191406 184.292969 133.71875 183.949219 133.71875 183.21875 L 133.675781 177.375 C 130.667969 178.621094 127.617188 178.921875 125.683594 178.148438 C 125.296875 178.019531 125.167969 177.460938 125.296875 176.859375 L 126.585938 171.488281 C 126.671875 171.058594 126.929688 170.628906 127.230469 170.371094 C 127.359375 170.285156 127.445312 170.199219 127.574219 170.113281 C 127.789062 170.027344 127.960938 169.984375 128.132812 170.070312 C 130.238281 170.757812 132.902344 170.457031 135.480469 169.125 C 138.746094 167.449219 140.9375 164.140625 140.894531 160.789062 C 140.851562 157.78125 139.21875 156.535156 135.265625 156.492188 C 130.238281 156.492188 125.511719 155.503906 125.425781 148.070312 C 125.382812 141.96875 128.5625 135.609375 133.589844 131.570312 L 133.546875 125.597656 C 133.546875 124.867188 133.976562 124.050781 134.578125 123.75 Z M 137.972656 121.6875 "/>
</g>
</svg>
