<?xml version="1.0" encoding="UTF-8"?>
<svg xmlns="http://www.w3.org/2000/svg" xmlns:xlink="http://www.w3.org/1999/xlink" width="230px" height="204px" viewBox="0 0 234 204" version="1.1">
<g id="surface1">
<path style=" stroke:none;fill-rule:nonzero;fill:rgb(38.039216%,85.490196%,98.431373%);fill-opacity:1;" d="M 190.6875 66.121094 C 188.253906 65.28125 185.800781 64.507812 183.324219 63.792969 C 183.734375 62.125 184.113281 60.445312 184.464844 58.761719 C 190.035156 31.636719 186.390625 9.789062 173.949219 2.597656 C 162.019531 -4.300781 142.507812 2.890625 122.800781 20.082031 C 120.859375 21.78125 118.960938 23.527344 117.105469 25.320312 C 115.863281 24.128906 114.601562 22.960938 113.316406 21.8125 C 92.664062 3.429688 71.960938 -4.316406 59.53125 2.894531 C 47.613281 9.8125 44.082031 30.355469 49.101562 56.058594 C 49.597656 58.601562 50.164062 61.132812 50.789062 63.652344 C 47.863281 64.484375 45.03125 65.375 42.324219 66.320312 C 18.113281 74.785156 2.648438 88.046875 2.648438 101.804688 C 2.648438 116.015625 19.25 130.269531 44.46875 138.910156 C 46.515625 139.609375 48.578125 140.253906 50.652344 140.847656 C 49.980469 143.5625 49.378906 146.289062 48.855469 149.035156 C 44.074219 174.292969 47.808594 194.347656 59.699219 201.222656 C 71.976562 208.320312 92.582031 201.023438 112.648438 183.4375 C 114.234375 182.046875 115.828125 180.578125 117.421875 179.027344 C 119.429688 180.96875 121.492188 182.855469 123.605469 184.683594 C 143.042969 201.449219 162.238281 208.222656 174.117188 201.328125 C 186.382812 194.210938 190.367188 172.667969 185.191406 146.453125 C 184.796875 144.453125 184.339844 142.410156 183.820312 140.324219 C 185.269531 139.898438 186.6875 139.453125 188.074219 138.992188 C 214.292969 130.285156 231.351562 116.207031 231.351562 101.804688 C 231.351562 88 215.386719 74.644531 190.6875 66.121094 Z M 129.214844 27.472656 C 146.097656 12.742188 161.878906 6.925781 169.070312 11.082031 C 176.726562 15.511719 179.707031 33.367188 174.894531 56.785156 C 174.578125 58.308594 174.238281 59.828125 173.867188 61.339844 C 163.792969 59.050781 153.574219 57.433594 143.289062 56.5 C 137.394531 48.007812 130.933594 39.925781 123.957031 32.308594 C 125.667969 30.652344 127.421875 29.042969 129.214844 27.472656 Z M 70.175781 113.558594 C 72.246094 117.5625 74.40625 121.519531 76.660156 125.421875 C 78.960938 129.40625 81.355469 133.332031 83.839844 137.199219 C 76.761719 136.429688 69.726562 135.292969 62.765625 133.800781 C 64.785156 127.265625 67.269531 120.46875 70.175781 113.558594 Z M 70.167969 90.523438 C 67.320312 83.757812 64.886719 77.105469 62.898438 70.683594 C 69.425781 69.21875 76.382812 68.023438 83.632812 67.113281 C 81.207031 70.910156 78.867188 74.757812 76.621094 78.664062 C 74.378906 82.566406 72.226562 86.519531 70.167969 90.523438 Z M 75.359375 102.042969 C 78.371094 95.761719 81.613281 89.597656 85.085938 83.558594 C 88.558594 77.519531 92.253906 71.621094 96.175781 65.859375 C 102.976562 65.34375 109.953125 65.074219 117 65.074219 C 124.082031 65.074219 131.066406 65.347656 137.863281 65.867188 C 141.742188 71.613281 145.417969 77.492188 148.882812 83.503906 C 152.367188 89.527344 155.65625 95.660156 158.742188 101.902344 C 155.6875 108.203125 152.414062 114.390625 148.914062 120.460938 C 145.449219 126.496094 141.792969 132.410156 137.941406 138.210938 C 131.15625 138.695312 124.144531 138.945312 117 138.945312 C 109.882812 138.945312 102.960938 138.722656 96.292969 138.292969 C 92.34375 132.507812 88.621094 126.585938 85.117188 120.515625 C 81.632812 114.484375 78.378906 108.324219 75.359375 102.042969 Z M 157.378906 125.355469 C 159.679688 121.355469 161.890625 117.304688 164.011719 113.207031 C 166.917969 119.792969 169.480469 126.523438 171.691406 133.375 C 164.648438 134.964844 157.527344 136.179688 150.355469 137.023438 C 152.773438 133.179688 155.113281 129.292969 157.378906 125.355469 Z M 163.917969 90.53125 C 161.804688 86.507812 159.613281 82.53125 157.339844 78.597656 C 155.101562 74.726562 152.785156 70.902344 150.382812 67.132812 C 157.683594 68.054688 164.671875 69.28125 171.238281 70.785156 C 169.128906 77.484375 166.6875 84.074219 163.917969 90.53125 Z M 117.109375 39.3125 C 121.867188 44.511719 126.359375 49.949219 130.566406 55.601562 C 121.5625 55.175781 112.554688 55.171875 103.539062 55.597656 C 107.980469 49.722656 112.53125 44.265625 117.109375 39.3125 Z M 64.425781 11.371094 C 72.078125 6.933594 88.996094 13.265625 106.828125 29.136719 C 107.96875 30.152344 109.113281 31.214844 110.261719 32.3125 C 103.242188 39.929688 96.734375 48.003906 90.777344 56.484375 C 80.515625 57.40625 70.320312 58.996094 60.261719 61.242188 C 59.675781 58.898438 59.152344 56.542969 58.6875 54.175781 C 54.390625 32.152344 57.242188 15.542969 64.425781 11.371094 Z M 53.277344 131.414062 C 51.378906 130.871094 49.496094 130.28125 47.628906 129.644531 C 37.945312 126.585938 28.902344 121.773438 20.957031 115.4375 C 16.355469 112.269531 13.265625 107.335938 12.417969 101.804688 C 12.417969 93.457031 24.835938 82.808594 45.542969 75.570312 C 48.140625 74.664062 50.765625 73.839844 53.414062 73.085938 C 56.488281 82.976562 60.210938 92.648438 64.5625 102.042969 C 60.160156 111.574219 56.386719 121.386719 53.277344 131.414062 Z M 106.21875 176.0625 C 98.742188 182.949219 90.0625 188.394531 80.621094 192.128906 L 80.617188 192.128906 C 75.585938 194.546875 69.777344 194.765625 64.578125 192.734375 C 57.363281 188.566406 54.367188 172.460938 58.457031 150.863281 C 58.941406 148.308594 59.5 145.773438 60.128906 143.25 C 70.289062 145.4375 80.585938 146.933594 90.945312 147.722656 C 96.953125 156.25 103.511719 164.375 110.578125 172.039062 C 109.160156 173.414062 107.707031 174.757812 106.21875 176.0625 Z M 117.378906 164.992188 C 112.75 159.980469 108.128906 154.441406 103.621094 148.480469 C 107.996094 148.652344 112.457031 148.742188 117 148.742188 C 121.660156 148.742188 126.265625 148.640625 130.804688 148.433594 C 126.617188 154.179688 122.132812 159.707031 117.378906 164.992188 Z M 176.707031 178.617188 C 176.28125 184.195312 173.570312 189.347656 169.21875 192.851562 C 162.011719 197.035156 146.597656 191.597656 129.976562 177.257812 C 128.070312 175.613281 126.15625 173.863281 124.226562 172 C 131.15625 164.308594 137.5625 156.15625 143.394531 147.597656 C 153.816406 146.714844 164.167969 145.117188 174.371094 142.8125 C 174.835938 144.699219 175.25 146.546875 175.609375 148.359375 C 177.824219 158.292969 178.195312 168.550781 176.707031 178.617188 Z M 185.003906 129.695312 L 185 129.695312 C 183.75 130.113281 182.46875 130.511719 181.160156 130.902344 C 177.960938 120.96875 174.09375 111.261719 169.578125 101.855469 C 173.921875 92.574219 177.640625 83.011719 180.710938 73.230469 C 183.046875 73.910156 185.320312 74.625 187.507812 75.382812 C 208.671875 82.683594 221.582031 93.484375 221.582031 101.804688 C 221.582031 110.671875 207.636719 122.175781 185.003906 129.699219 Z M 185.003906 129.695312 "/>
<path style=" stroke:none;fill-rule:nonzero;fill:rgb(38.039216%,85.490196%,98.431373%);fill-opacity:1;" d="M 117 81.332031 C 128.277344 81.332031 137.421875 90.5 137.421875 101.804688 C 137.421875 113.113281 128.28125 122.28125 117 122.28125 C 105.722656 122.28125 96.578125 113.113281 96.578125 101.804688 C 96.578125 90.5 105.722656 81.332031 117 81.332031 "/>
</g>
</svg>
